<svg id="Capa_1" data-name="Capa 1" xmlns="http://www.w3.org/2000/svg" width="386.43" height="122.1" viewBox="0 0 386.43 122.1">
  <defs>
    <style>
      .cls-1 {
        fill: #242444;
      }

      .cls-2 {
        fill: #685bc7;
      }
    </style>
  </defs>
  <path class="cls-1" d="M89,77.68c0-21.56,16.8-37.77,38.81-37.77,21.27,0,36.44,15.17,36.44,36.14a44.25,44.25,0,0,1-1,9.07l-51.75.15c2.38,8,8.63,12.64,17.85,12.64,7.14,0,12.94-2.38,17.25-7.44L159,103c-7.14,8.33-17.4,12.5-29.59,12.5C105.93,115.46,89,99.69,89,77.68Zm22.45-8L143,69.5c-1.78-8-6.84-12.19-15-12.19S113.66,61.92,111.43,69.66Z"/>
  <path class="cls-1" d="M175.24,5.86H198v108H175.24Z"/>
  <path class="cls-1" d="M209.74,77.68c0-21.11,13.53-37.62,32.86-37.62,9.08,0,15.92,3.12,20.52,8.48V5.86h22.46v108H263.12V107c-4.6,5.21-11.3,8.33-20.52,8.33C223.12,115.31,209.74,98.8,209.74,77.68Zm54.43-.59c0-10.11-6.1-17.25-15.77-17.25-9.22,0-15.61,7.14-15.61,17.25s6.24,17.1,15.61,17.1C258.07,94.19,264.17,87.2,264.17,77.09Z"/>
  <path class="cls-1" d="M297.18,77.68c0-21.56,14.72-37.62,34.65-37.62a28.84,28.84,0,0,1,19.93,7.44v-6h22.31v72.27H351.76v-5.95a28.84,28.84,0,0,1-19.93,7.44C311.9,115.31,297.18,99.25,297.18,77.68Zm55.47,0c0-10.11-6.54-17.1-16.06-17.1s-16.36,7.14-16.36,17.1,6.85,17.11,16.21,17.11C346.11,94.79,352.65,87.8,352.65,77.68Z"/>
  <g>
    <path class="cls-1" d="M33,41.55H14a3.1,3.1,0,0,0-2.54,4.89L30.56,73.69a3.11,3.11,0,0,0,5.06,0l9.62-13.32a3.09,3.09,0,0,0,0-3.6L35.55,42.88A3.09,3.09,0,0,0,33,41.55Z"/>
    <path class="cls-1" d="M13.74,114.82H30.91a3.1,3.1,0,0,0,2.52-1.29L45,97.47a3.11,3.11,0,0,0,0-3.6l-8.45-12a3.11,3.11,0,0,0-5.06,0L11.23,109.89A3.11,3.11,0,0,0,13.74,114.82Z"/>
  </g>
  <polygon class="cls-2" points="60.7 76.06 85.55 41.55 60.87 41.55 48.53 58.62 35.07 77.27 47.29 94.68 60.72 113.82 87.04 113.82 60.7 76.06"/>
</svg>
