<svg id="Capa_1" data-name="Capa 1" xmlns="http://www.w3.org/2000/svg" width="296.04" height="296.04" viewBox="0 0 296.04 296.04">
  <defs>
    <style>
      .cls-1 {
        fill: #fff;
      }

      .cls-2 {
        fill: #242444;
      }

      .cls-3 {
        fill: #685bc7;
      }
    </style>
  </defs>
  <circle class="cls-1" cx="150.05" cy="147.35" r="136.53"/>
  <polygon class="cls-2" points="80.07 145.78 80.05 145.8 80.08 145.85 80.1 145.82 80.07 145.78"/>
  <g>
    <g>
      <path class="cls-2" d="M125,84.42H89.76A5.75,5.75,0,0,0,85,93.48L120.49,144a5.77,5.77,0,0,0,9.39.06l17.83-24.69a5.75,5.75,0,0,0,0-6.67l-18-25.83A5.75,5.75,0,0,0,125,84.42Z"/>
      <path class="cls-2" d="M89.32,220.25h31.82a5.79,5.79,0,0,0,4.68-2.39l21.43-29.77a5.75,5.75,0,0,0,0-6.67l-15.65-22.31a5.76,5.76,0,0,0-9.38-.07L84.65,211.12A5.76,5.76,0,0,0,89.32,220.25Z"/>
    </g>
    <polygon class="cls-3" points="176.36 148.39 222.43 84.42 176.67 84.42 153.81 116.07 128.85 150.63 151.5 182.91 176.4 218.4 225.19 218.4 176.36 148.39"/>
  </g>
</svg>
