<svg xmlns="http://www.w3.org/2000/svg" width="273.06" height="273.06" viewBox="0 0 273.06 273.06">
  <defs>
    <style>
      .cls-1 {
        fill: #fff;
      }

      .cls-2 {
        fill: #242444;
      }

      .cls-3 {
        fill: #685bc7;
      }
    </style>
  </defs>
  <g id="Capa_2" data-name="Capa 2">
    <g id="Capa_1-2" data-name="Capa 1">
      <circle class="cls-1" cx="136.53" cy="136.53" r="136.53"/>
      <g>
        <path class="cls-2" d="M114.25,73.16H83.13A8.75,8.75,0,0,0,76,86.93l29.66,42.26a8.74,8.74,0,0,0,14.24.1L134,109.78A8.73,8.73,0,0,0,134,99.66L116.31,74.24A2.5,2.5,0,0,0,114.25,73.16Z"/>
        <path class="cls-2" d="M80.94,208.87h24.37a8.73,8.73,0,0,0,7.09-3.63l19.25-26.74a8.74,8.74,0,0,0,.07-10.13l-12-17.07a8.74,8.74,0,0,0-14.24-.1L73.85,195A8.74,8.74,0,0,0,80.94,208.87Z"/>
      </g>
      <path class="cls-3" d="M164.72,133,197.1,88A8.75,8.75,0,0,0,190,74.16H162.69a2.5,2.5,0,0,0-2,1l-22.07,30.55L117.32,135.2a8.74,8.74,0,0,0-.07,10.14l19,27.12,22.24,31.69a8.76,8.76,0,0,0,7.16,3.72h27.39a8.74,8.74,0,0,0,7.17-13.74l-35.6-51A8.75,8.75,0,0,1,164.72,133Z"/>
    </g>
  </g>
</svg>
